IKResults
version=1
nRows=8
nColumns=63
inDegrees=yes

Units are S.I. units (second, meters, Newtons, ...)
If the header above contains a line with 'inDegrees', this indicates whether rotational values are in degrees (yes) or radians (no).

endheader
time	pelvis_tilt	pelvis_list	pelvis_rotation	pelvis_tx	pelvis_ty	pelvis_tz	hip_flexion_r	hip_adduction_r	hip_rotation_r	knee_angle_r	knee_angle_r_beta	ankle_angle_r	subtalar_angle_r	mtp_angle_r	hip_flexion_l	hip_adduction_l	hip_rotation_l	knee_angle_l	knee_angle_l_beta	ankle_angle_l	subtalar_angle_l	mtp_angle_l	L5_S1_Flex_Ext	L5_S1_Lat_Bending	L5_S1_axial_rotation	L4_L5_Flex_Ext	L4_L5_Lat_Bending	L4_L5_axial_rotation	L3_L4_Flex_Ext	L3_L4_Lat_Bending	L3_L4_axial_rotation	L2_L3_Flex_Ext	L2_L3_Lat_Bending	L2_L3_axial_rotation	L1_L2_Flex_Ext	L1_L2_Lat_Bending	L1_L2_axial_rotation	L1_T12_Flex_Ext	L1_T12_Lat_Bending	L1_T12_axial_rotation	Abs_r3	Abs_r2	Abs_r1	Abs_t1	Abs_t2	neck_flexion	neck_bending	neck_rotation	arm_flex_r	arm_add_r	arm_rot_r	elbow_flex_r	pro_sup_r	wrist_flex_r	wrist_dev_r	arm_flex_l	arm_add_l	arm_rot_l	elbow_flex_l	pro_sup_l	wrist_flex_l	wrist_dev_l
      6.03333333	    -81.09506981	     27.29795314	     63.56104385	     -0.86433163	      0.25030049	     -0.01231810	    120.42451867	     22.79729974	     34.34294910	     38.09053251	      0.66480521	    -75.68353637	    -12.66007803	      0.00000000	     51.91980950	     -8.16769279	    -12.15356727	     19.08483659	      0.33309324	    -48.12466620	      8.28846938	      0.00000000	      8.18063040	      1.69998764	      3.15210390	     15.19224871	      2.26098356	      3.34911040	     13.43995768	      4.13334995	      3.34911040	      9.34964248	      4.13334995	      2.75809092	      7.59653339	      3.46661480	      2.56108442	      4.67441221	      2.63328086	      2.36407793	     58.43342485	     19.23060019	     17.53105629	      0.00000000	      0.00000000	     27.16940803	      1.34094275	    -42.52712725	    164.54501150	     -2.06962049	    180.17647822	     38.26093845	     89.99559364	      0.00000000	      0.00000000	     32.49556289	     28.32580249	     23.27931962	     48.49586265	     89.99559364	      0.00000000	      0.00000000
      6.06666667	    -80.98005912	     27.39805768	     63.54808641	     -0.86342283	      0.25050429	     -0.01238594	    120.35669449	     22.81759835	     34.35845939	     38.29073635	      0.66829942	    -75.71685752	    -12.65957292	      0.00000000	     51.70039241	     -8.15130687	    -12.27443523	     19.05480995	      0.33256917	    -48.03173470	      8.22536098	      0.00000000	      8.17829365	      1.70844866	      3.14244019	     15.18790914	      2.27223671	      3.33884270	     13.43611864	      4.15392206	      3.33884270	      9.34697181	      4.15392206	      2.74963517	      7.59436348	      3.48386850	      2.55323265	      4.67307699	      2.64638697	      2.35683014	     58.41673371	     19.32631290	     17.47730960	      0.00000000	      0.00000000	     27.15325546	      1.37875184	    -42.32729616	    164.42753332	     -2.00851354	    180.24273029	     38.21513439	     89.99559364	      0.00000000	      0.00000000	     32.37778413	     28.36997410	     23.29118659	     48.47308129	     89.99559364	      0.00000000	      0.00000000
      6.10000000	    -80.91857136	     27.42884334	     63.56267889	     -0.86276886	      0.25066535	     -0.01244221	    120.31918696	     22.79785755	     34.35817766	     38.32606408	      0.66891601	    -75.72788147	    -12.65516934	      0.00000000	     51.60534772	     -8.12762625	    -12.30903115	     19.06324811	      0.33271645	    -48.02150015	      8.21358670	      0.00000000	      8.18665165	      1.71257849	      3.13556573	     15.20343078	      2.27772939	      3.33153859	     13.44985000	      4.16396334	      3.33153859	      9.35652417	      4.16396334	      2.74362001	      7.60212472	      3.49229005	      2.54764716	      4.67785275	      2.65278408	      2.35167430	     58.47643408	     19.37303037	     17.43907593	      0.00000000	      0.00000000	     27.14760894	      1.38607690	    -42.27216263	    164.33020204	     -1.98467300	    180.26190367	     38.21960331	     89.99559364	      0.00000000	      0.00000000	     32.27535984	     28.40391469	     23.31592120	     48.45259520	     89.99559364	      0.00000000	      0.00000000
      6.13333333	    -80.87757755	     27.44140861	     63.57419758	     -0.86240381	      0.25069687	     -0.01249334	    120.32031285	     22.78645125	     34.35408313	     38.33470015	      0.66906674	    -75.73104007	    -12.65024596	      0.00000000	     51.55461029	     -8.11331602	    -12.31656337	     19.07056354	      0.33284412	    -48.02078720	      8.20807053	      0.00000000	      8.19190284	      1.71440386	      3.13359019	     15.21318276	      2.28015714	      3.32943958	     13.45847717	      4.16840155	      3.32943958	      9.36252575	      4.16840155	      2.74189142	      7.60700097	      3.49601236	      2.54604203	      4.68085328	      2.65561158	      2.35019264	     58.51394276	     19.39367937	     17.42808858	      0.00000000	      0.00000000	     27.12419872	      1.38755421	    -42.24785511	    164.30906739	     -1.97301602	    180.26590253	     38.21947623	     89.99559364	      0.00000000	      0.00000000	     32.25404529	     28.41688047	     23.32174823	     48.45030120	     89.99559364	      0.00000000	      0.00000000
      6.16666667	    -80.46471473	     27.92024374	     63.77518541	     -0.86130881	      0.25129912	     -0.01241962	    119.86346994	     22.58728688	     34.57521909	     38.90660758	      0.67904840	    -76.29894324	    -12.68556646	      0.00000000	     50.92584652	     -7.93784943	    -12.56765429	     19.01568929	      0.33188639	    -48.00599320	      8.27814835	      0.00000000	      8.11208919	      1.73227031	      2.96877852	     15.06496083	      2.30391951	      3.15432718	     13.32735133	      4.21184202	      3.15432718	      9.27130673	      4.21184202	      2.59768121	      7.53288602	      3.53244561	      2.41213255	      4.63524776	      2.68328670	      2.22658389	     57.94384186	     19.59578815	     16.51145550	      0.00000000	      0.00000000	     27.09016815	      1.79071433	    -41.48659953	    163.51929499	     -1.40831965	    181.25976423	     37.27269532	     89.99559364	      0.00000000	      0.00000000	     32.12724376	     28.26447295	     22.71135009	     48.64500599	     89.99559364	      0.00000000	      0.00000000
      6.20000000	    -80.44654134	     27.93079358	     63.78748537	     -0.86100582	      0.25138504	     -0.01246589	    119.86005075	     22.57486394	     34.57044248	     38.91216451	      0.67914539	    -76.30264423	    -12.68235249	      0.00000000	     50.89537694	     -7.92049247	    -12.56758732	     19.02196570	      0.33199593	    -48.01089907	      8.27463040	      0.00000000	      8.11657489	      1.73367368	      2.96837053	     15.07329122	      2.30578600	      3.15389369	     13.33472088	      4.21525420	      3.15389369	      9.27643344	      4.21525420	      2.59732421	      7.53705144	      3.53530738	      2.41180106	      4.63781089	      2.68546054	      2.22627790	     57.97588277	     19.61166345	     16.50918637	      0.00000000	      0.00000000	     27.07651473	      1.78730128	    -41.47709665	    163.50289055	     -1.40015130	    181.26137923	     37.27485642	     89.99559364	      0.00000000	      0.00000000	     32.10590602	     28.27690910	     22.71854734	     48.63968534	     89.99559364	      0.00000000	      0.00000000
      6.23333333	    -80.27998423	     27.99491390	     63.88514704	     -0.86014617	      0.25181476	     -0.01254495	    119.81714187	     22.46843683	     34.58199737	     39.28462278	      0.68564601	    -76.44728594	    -12.69177822	      0.00000000	     50.71294601	     -7.82742756	    -12.46608092	     18.88339749	      0.32957746	    -48.15367408	      8.17067620	      0.00000000	      8.12149040	      1.74062141	      2.93649309	     15.08241983	      2.31502647	      3.12002391	     13.34279659	      4.23214689	      3.12002391	      9.28205138	      4.23214689	      2.56943146	      7.54161599	      3.54947518	      2.38590064	      4.64061962	      2.69622256	      2.20236982	     58.01099381	     19.69025750	     16.33189363	      0.00000000	      0.00000000	     27.01070148	      1.68136007	    -41.27667119	    163.31743663	     -1.30439143	    181.43543163	     37.15205427	     89.99559364	      0.00000000	      0.00000000	     31.95159430	     28.38905954	     22.70354012	     48.53957858	     89.99559364	      0.00000000	      0.00000000
      6.26666667	    -80.26815556	     28.01245932	     63.90317660	     -0.85986060	      0.25193351	     -0.01260904	    119.79445393	     22.44821308	     34.57728710	     39.29636229	      0.68585091	    -76.45476983	    -12.68957946	      0.00000000	     50.68872642	     -7.80655357	    -12.46052131	     18.89115373	      0.32971283	    -48.16451437	      8.16891044	      0.00000000	      8.12489298	      1.74124858	      2.93580699	     15.08873875	      2.31586061	      3.11929492	     13.34838668	      4.23367180	      3.11929492	      9.28594019	      4.23367180	      2.56883111	      7.54477562	      3.55075411	      2.38534318	      4.64256385	      2.69719405	      2.20185524	     58.03529807	     19.69735222	     16.32807772	      0.00000000	      0.00000000	     26.99967274	      1.68468401	    -41.26643569	    163.28697600	     -1.28981965	    181.44092298	     37.14896164	     89.99559364	      0.00000000	      0.00000000	     31.92569616	     28.42208887	     22.71326896	     48.54256392	     89.99559364	      0.00000000	      0.00000000
